<svg width="24" height="26" viewBox="0 0 24 26" fill="none" xmlns="http://www.w3.org/2000/svg">
<path fill-rule="evenodd" clip-rule="evenodd" d="M23.9573 8.30934C23.9573 6.64487 23.7634 5.15141 23.7064 4.59278C23.6697 4.22233 23.4836 3.88286 23.191 3.65267C22.8984 3.42249 22.5247 3.32147 22.156 3.37293C21.487 3.46925 20.8135 3.53014 20.1381 3.55534C19.3203 3.60901 18.4991 3.54761 17.6984 3.37293C16.7484 3.04819 15.8614 2.56227 15.0763 1.93646C14.4221 1.45404 13.7977 0.932462 13.2066 0.374596C12.679 -0.124865 11.8531 -0.124865 11.3255 0.374596C10.7378 0.92381 10.1213 1.44136 9.47862 1.92506C8.68158 2.54831 7.78821 3.03735 6.8337 3.37293C5.93845 3.58685 5.01534 3.65993 4.09758 3.58954C3.33442 3.56204 2.57329 3.49354 1.81748 3.38433C1.45299 3.34272 1.08693 3.44801 0.800257 3.67692C0.513579 3.90584 0.329893 4.23952 0.289814 4.60418C0.232811 5.16281 0.0846048 6.65627 0.0390028 8.33215C-0.0647345 9.99537 0.0386626 11.665 0.346816 13.3028C1.20915 16.0213 2.80723 18.448 4.96402 20.3141C6.67297 21.925 8.52352 23.3787 10.4933 24.6577C11.5778 25.3917 12.9999 25.3917 14.0844 24.6577C15.945 23.3396 17.6916 21.8675 19.3058 20.2571C21.3353 18.3756 22.8335 15.9928 23.6494 13.3484C23.9641 11.6884 24.0676 9.99528 23.9573 8.30934ZM12.7619 22.7196C12.4569 22.9315 12.0523 22.9315 11.7472 22.7196C10.338 21.801 8.98991 20.7918 7.71147 19.6984V18.7636C7.71147 16.3962 9.63064 14.477 11.9981 14.477C14.3655 14.477 16.2846 16.3962 16.2846 18.7636V19.9037C15.1657 20.9094 13.9894 21.8496 12.7619 22.7196ZM11.9982 11.6041C11.0978 11.6041 10.3679 10.8742 10.3679 9.97382C10.3679 9.07345 11.0978 8.34355 11.9982 8.34355C12.8985 8.34355 13.6284 9.07345 13.6284 9.97382C13.6284 10.8742 12.8985 11.6041 11.9982 11.6041ZM21.4373 12.7442C20.8611 14.621 19.8449 16.333 18.4732 17.7376C18.1219 15.5576 16.7003 13.6992 14.6882 12.7898C15.4689 12.057 15.9107 11.0332 15.9081 9.96243C15.9081 7.80279 14.1573 6.05206 11.9977 6.05206C9.83806 6.05206 8.08733 7.80279 8.08733 9.96243C8.08473 11.0332 8.52646 12.057 9.30718 12.7898C7.3286 13.6768 5.91911 15.4878 5.54501 17.6236C4.16381 16.267 3.13795 14.5912 2.55808 12.7442C2.31086 11.3066 2.22672 9.84564 2.30727 8.38916C2.30727 7.38591 2.40988 6.45107 2.47828 5.75564C2.9115 5.75564 3.44732 5.84685 4.01735 5.86965C5.16645 5.94409 6.32015 5.84026 7.4375 5.56183C8.67177 5.16047 9.82844 4.55129 10.8576 3.76056C11.4277 3.33874 11.9293 2.92832 12.3169 2.62051C12.7045 2.95112 13.2061 3.37294 13.7762 3.76056C14.8014 4.55752 15.9592 5.1673 17.1963 5.56183C18.2124 5.79497 19.2564 5.88325 20.2973 5.82405L21.5285 5.74424C21.5855 6.43967 21.6539 7.38591 21.6881 8.38916C21.7695 9.84942 21.6854 11.3142 21.4373 12.7556V12.7442Z" fill="#000"/>
</svg>
