<svg width="24" height="20" viewBox="0 0 24 20" fill="none" xmlns="http://www.w3.org/2000/svg">
<path fill-rule="evenodd" clip-rule="evenodd" d="M4.98485 19.6865C3.44046 19.6865 2.18848 18.4345 2.18848 16.8901C2.18848 15.3457 3.44046 14.0938 4.98485 14.0938C6.52925 14.0938 7.78123 15.3457 7.78123 16.8901C7.78123 18.4345 6.52925 19.6865 4.98485 19.6865ZM4.98487 17.4494C5.29125 17.4435 5.53819 17.1965 5.54414 16.8901C5.54414 16.5813 5.29375 16.3309 4.98487 16.3309C4.67599 16.3309 4.42559 16.5813 4.42559 16.8901C4.42559 17.199 4.67599 17.4494 4.98487 17.4494Z" fill="#000"/>
<path d="M2.18837 11.1855C1.57062 11.1855 1.06982 11.6863 1.06982 12.3041C1.06982 12.9218 1.57062 13.4226 2.18837 13.4226H12.4902L13.9667 18.8588C14.1304 19.4549 14.7464 19.8055 15.3425 19.6417C15.9387 19.478 16.2892 18.8621 16.1255 18.2659L14.8056 13.4226H16.5506C17.1665 13.4244 17.7032 13.0033 17.8481 12.4047L20.3984 2.2371H22.8816C23.4993 2.2371 24.0001 1.73631 24.0001 1.11855C24.0001 0.500792 23.4993 0 22.8816 0H19.6937C19.0792 0.00227027 18.5447 0.421572 18.3962 1.01788L15.8571 11.1855H2.18837Z" fill="#000"/>
<path fill-rule="evenodd" clip-rule="evenodd" d="M2.92651 10.067C2.29031 10.0703 1.73916 9.62658 1.60662 9.00433L0.0294651 1.6219C-0.0547757 1.22642 0.0437516 0.814046 0.297666 0.499365C0.551581 0.184685 0.933824 0.00123604 1.33817 0H15.3536C15.754 0.00788284 16.13 0.194148 16.3788 0.507927C16.6277 0.821706 16.7234 1.23022 16.6399 1.6219L15.0628 9.00433C14.9302 9.62658 14.3791 10.0703 13.7429 10.067H2.92651ZM13.0384 7.82985L14.2353 2.2371H2.44574L3.64259 7.82985H13.0384Z" fill="#000"/>
</svg>
