<svg width="79" height="79" fill="none" xmlns="http://www.w3.org/2000/svg"><g opacity=".25" fill="#fff"><circle cx="2.637" cy="2.637" r="1.862"/><circle cx="21.253" cy="2.637" r="1.862"/><circle cx="39.869" cy="2.637" r="1.862"/><circle cx="58.485" cy="2.637" r="1.862"/><circle cx="77.101" cy="2.637" r="1.862"/><circle cx="2.638" cy="21.253" r="1.862"/><circle cx="21.253" cy="21.253" r="1.862"/><circle cx="39.869" cy="21.253" r="1.862"/><circle cx="58.485" cy="21.253" r="1.862"/><circle cx="77.101" cy="21.253" r="1.862"/><circle cx="2.637" cy="39.869" r="1.862"/><circle cx="21.253" cy="39.869" r="1.862"/><circle cx="39.869" cy="39.869" r="1.862"/><circle cx="58.485" cy="39.869" r="1.862"/><circle cx="77.101" cy="39.869" r="1.862"/><circle cx="2.637" cy="58.485" r="1.862"/><circle cx="21.253" cy="58.485" r="1.862"/><circle cx="39.869" cy="58.485" r="1.862"/><circle cx="58.485" cy="58.485" r="1.862"/><circle cx="77.101" cy="58.485" r="1.862"/><circle cx="2.637" cy="77.101" r="1.862"/><circle cx="21.253" cy="77.101" r="1.862"/><circle cx="39.869" cy="77.101" r="1.862"/><circle cx="58.485" cy="77.101" r="1.862"/><circle cx="77.101" cy="77.101" r="1.862"/></g></svg>