<svg width="18" height="20" viewBox="0 0 18 20" fill="none" xmlns="http://www.w3.org/2000/svg">
<path d="M9.36047 18.9996H3.33889C2.56021 19.0128 1.82849 18.6283 1.39767 17.9795C1.13907 17.609 1.00085 17.1677 1.00181 16.7158V12.1483C0.979716 11.8374 1.16138 11.548 1.45096 11.4327C1.72292 11.2937 2.05315 11.3426 2.27312 11.5545C2.43861 11.7037 2.53042 11.9179 2.52434 12.1407V16.6626C2.51768 16.9062 2.62805 17.1382 2.82123 17.2868C2.94695 17.386 3.1026 17.4397 3.26276 17.439H15.3973C15.6193 17.4554 15.8373 17.3737 15.994 17.2156C16.1506 17.0575 16.2302 16.8387 16.2118 16.6169V12.1483C16.2035 11.9069 16.3102 11.6758 16.4994 11.5257C16.6886 11.3755 16.9378 11.3241 17.171 11.387C17.4807 11.4729 17.7031 11.744 17.7267 12.0645C17.7302 12.0974 17.7302 12.1306 17.7267 12.1635V16.6473C17.7267 17.9086 16.7042 18.9311 15.4429 18.9311L9.36047 18.9996Z" fill="#0F1226" stroke="#0F1226" stroke-width="0.3"/>
<path d="M8.77429 11.5871V1.84295C8.76528 1.68454 8.79949 1.52666 8.87326 1.38619C9.04483 1.08324 9.40007 0.935289 9.73597 1.0269C10.0719 1.11851 10.3028 1.42632 10.2968 1.77444V11.5871L10.411 11.4957L12.2761 9.97322C12.5306 9.77702 12.8809 9.76179 13.1515 9.93516C13.3721 10.0621 13.5146 10.2908 13.5314 10.5446C13.5482 10.7985 13.4371 11.044 13.2353 11.1989L10.1217 13.6882C9.79388 13.9559 9.32291 13.9559 8.99506 13.6882L5.85105 11.1912C5.54126 10.9295 5.49104 10.4709 5.73686 10.1483C5.86374 9.99037 6.04835 9.88951 6.24981 9.86808C6.45127 9.84665 6.65296 9.90641 6.81024 10.0341L8.15767 11.1151L8.77429 11.5871Z" fill="#0F1226" stroke="#0F1226" stroke-width="0.3"/>
</svg>
