<svg width="65" height="65" viewBox="0 0 65 65" fill="none" xmlns="http://www.w3.org/2000/svg">
<rect width="65" height="65" rx="6" fill="#4E7CFF"/>
<path d="M39.8338 19.9013C39.3684 19.9013 38.9367 20.0489 38.5832 20.2997V19.1663C38.5832 17.9718 37.6114 17 36.417 17C35.7236 17 35.1053 17.3274 34.7085 17.8358C34.3117 17.3274 33.6934 17 33.0001 17C31.8344 17 30.8809 17.9253 30.8355 19.08C30.4817 18.8284 30.0494 18.6804 29.5832 18.6804C28.3887 18.6804 27.4169 19.6522 27.4169 20.8467V28.3211C27.0634 28.0704 26.6317 27.9228 26.1663 27.9228C24.9718 27.9228 24 28.8946 24 30.0891V34.1781C24 36.4092 24.804 38.5111 26.276 40.1603C26.0062 40.3766 25.801 40.6631 25.6823 40.9881C25.6823 40.9882 25.6822 40.9883 25.6822 40.9884C25.674 41.0108 25.6665 41.0335 25.6593 41.0562C25.6561 41.0659 25.6528 41.0757 25.6498 41.0856C25.6441 41.1044 25.6388 41.1235 25.6335 41.1426C25.6297 41.1568 25.6259 41.1709 25.6223 41.1853C25.6182 41.2021 25.6143 41.219 25.6106 41.236C25.6069 41.253 25.6034 41.2702 25.6002 41.2874C25.5974 41.3027 25.5945 41.3181 25.5919 41.3336C25.5887 41.3529 25.5861 41.3726 25.5835 41.3921C25.5817 41.4061 25.5797 41.4199 25.5782 41.4339C25.5757 41.4564 25.574 41.4793 25.5724 41.5021C25.5716 41.5135 25.5704 41.5248 25.5697 41.5363C25.5679 41.5708 25.5667 41.6055 25.5667 41.6404V45.9286C25.5667 46.9755 26.4184 47.8272 27.4654 47.8272H38.5346C39.5815 47.8272 40.4332 46.9755 40.4332 45.9286V41.6404C40.4332 41.6055 40.4321 41.5708 40.4302 41.5363C40.4296 41.5248 40.4285 41.5135 40.4276 41.5021C40.4259 41.4793 40.4241 41.4564 40.4217 41.4338C40.4202 41.4198 40.4182 41.406 40.4164 41.3921C40.4138 41.3725 40.4112 41.3529 40.408 41.3335C40.4055 41.318 40.4026 41.3027 40.3997 41.2873C40.3964 41.2701 40.393 41.2529 40.3893 41.2359C40.3857 41.2189 40.3818 41.2021 40.3776 41.1853C40.374 41.1709 40.3702 41.1567 40.3664 41.1425C40.3612 41.1234 40.3559 41.1044 40.3501 41.0855C40.3471 41.0757 40.3439 41.0659 40.3407 41.0561C40.3333 41.0334 40.3259 41.0107 40.3177 40.9884C40.3177 40.9883 40.3176 40.9881 40.3176 40.988C40.199 40.6631 39.9937 40.3766 39.724 40.1603C41.196 38.5111 41.9999 36.4091 41.9999 34.1781V22.0676H42C42.0001 20.8731 41.0283 19.9013 39.8338 19.9013ZM41.0845 34.1781C41.0845 36.2806 40.2892 38.2552 38.8403 39.7667C38.7407 39.7505 38.6387 39.7417 38.5347 39.7417H36.1089V40.6574H38.5347C38.6334 40.6574 38.7287 40.6723 38.8187 40.6996L38.8418 40.7073C38.8419 40.7073 38.842 40.7073 38.8421 40.7074C38.8814 40.7203 38.919 40.7362 38.9557 40.7536C38.968 40.7594 38.9805 40.7649 38.9925 40.7713C39.0033 40.7769 39.0136 40.7832 39.0241 40.7892C39.0404 40.7986 39.0565 40.8081 39.0722 40.8185C39.0798 40.8235 39.0873 40.8286 39.0948 40.8337C39.1143 40.8473 39.1335 40.8615 39.152 40.8765C39.1555 40.8794 39.1592 40.8821 39.1627 40.8851C39.2331 40.9437 39.2952 41.012 39.347 41.0879C39.3487 41.0904 39.3504 41.093 39.352 41.0956C39.3673 41.1184 39.3817 41.1421 39.395 41.1662C39.3968 41.1694 39.3986 41.1725 39.4003 41.1758C39.4291 41.229 39.453 41.2853 39.4715 41.3439C39.4734 41.3498 39.4749 41.3559 39.4766 41.3619C39.4832 41.3841 39.489 41.4067 39.4941 41.4295C39.4961 41.4388 39.498 41.4481 39.4997 41.4575C39.5037 41.4785 39.5069 41.4999 39.5095 41.5212C39.5106 41.5304 39.512 41.5395 39.5128 41.5487C39.5156 41.5789 39.5174 41.6093 39.5174 41.6402V45.9284C39.5174 46.4704 39.0765 46.9114 38.5345 46.9114H27.4654C26.9234 46.9114 26.4824 46.4704 26.4824 45.9284V41.6404C26.4824 41.6095 26.4842 41.579 26.4871 41.5489C26.4879 41.5397 26.4892 41.5306 26.4904 41.5214C26.493 41.4999 26.4962 41.4787 26.5001 41.4577C26.5019 41.4483 26.5038 41.4389 26.5058 41.4297C26.5108 41.4068 26.5166 41.3843 26.5233 41.362C26.525 41.3561 26.5265 41.3499 26.5284 41.344C26.5469 41.2855 26.5709 41.2292 26.5995 41.1759C26.6012 41.1727 26.6032 41.1696 26.6048 41.1664C26.6182 41.1423 26.6325 41.1186 26.6478 41.0957C26.6495 41.0931 26.6512 41.0907 26.6529 41.0881C26.7047 41.0122 26.7668 40.9439 26.8372 40.8852C26.8407 40.8823 26.8444 40.8796 26.8479 40.8767C26.8664 40.8618 26.8855 40.8475 26.9051 40.8339C26.9126 40.8287 26.92 40.8236 26.9277 40.8186C26.9434 40.8084 26.9595 40.7988 26.9757 40.7894C26.9862 40.7834 26.9966 40.777 27.0074 40.7714C27.0194 40.7651 27.0319 40.7596 27.0441 40.7537C27.0808 40.7364 27.1185 40.7204 27.1578 40.7076C27.1579 40.7075 27.158 40.7075 27.1581 40.7074L27.1812 40.6998C27.2712 40.6726 27.3664 40.6576 27.4652 40.6576H34.8877V39.7419H27.4654C27.3613 39.7419 27.2593 39.7507 27.1598 39.7669C25.7109 38.2553 24.9157 36.2808 24.9157 34.1783V30.0892C24.9157 29.3996 25.4766 28.8386 26.1663 28.8386C26.8559 28.8386 27.4169 29.3995 27.4169 30.0892V33.7021H28.3326V30.0892V20.8467C28.3326 20.1571 28.8935 19.5961 29.5832 19.5961C30.2728 19.5961 30.8338 20.157 30.8338 20.8467V28.4366H31.7494V20.8467V19.1662C31.7494 18.4766 32.3105 17.9156 33.0001 17.9156C33.6896 17.9156 34.2507 18.4766 34.2507 19.1662V28.4366H35.1663V19.1663C35.1663 18.4767 35.7273 17.9157 36.417 17.9157C37.1066 17.9157 37.6676 18.4766 37.6676 19.1663V20.8467V22.0676V25.0884H38.5832V22.0676C38.5832 21.378 39.1442 20.817 39.8338 20.817C40.5235 20.817 41.0845 21.378 41.0845 22.0676V34.1781Z" fill="white" stroke="white" stroke-width="0.3"/>
<path d="M38.2529 33.178C38.2529 34.4382 37.883 35.6487 37.1833 36.6788L37.9408 37.1934C38.744 36.0108 39.1686 34.6224 39.1686 33.178V30.8643H38.2529V33.178Z" fill="white" stroke="white" stroke-width="0.3"/>
<path d="M38.5832 26.3092H37.6676V28.4366H38.5832V26.3092Z" fill="white" stroke="white" stroke-width="0.3"/>
<path d="M37.6674 39.7461H31.3906V40.6602H37.6674V39.7461Z" fill="white" stroke="white" stroke-width="0.3"/>
</svg>
