<svg width="65" height="65" viewBox="0 0 65 65" fill="none" xmlns="http://www.w3.org/2000/svg">
<rect width="65" height="65" rx="6" fill="#4E7CFF"/>
<path d="M43.9677 20C43.6854 20 43.4147 20.1159 43.215 20.3222C43.0154 20.5285 42.9032 20.8083 42.9032 21.1V27.106L41.8387 27.843V21.1C41.8387 20.8083 41.7266 20.5285 41.5269 20.3222C41.3273 20.1159 41.0565 20 40.7742 20C40.4919 20 40.2211 20.1159 40.0215 20.3222C39.8218 20.5285 39.7097 20.8083 39.7097 21.1V27.843L38.6452 27.106V21.1C38.6452 20.8083 38.533 20.5285 38.3334 20.3222C38.1337 20.1159 37.863 20 37.5806 20C37.2983 20 37.0276 20.1159 36.8279 20.3222C36.6283 20.5285 36.5161 20.8083 36.5161 21.1V27.7C36.517 27.8812 36.5612 28.0593 36.6448 28.2186C36.7284 28.3779 36.8487 28.5134 36.9952 28.613L39.7097 30.494V40.9C39.7097 41.1917 39.8218 41.4715 40.0215 41.6778C40.2211 41.8841 40.4919 42 40.7742 42C41.0565 42 41.3273 41.8841 41.5269 41.6778C41.7266 41.4715 41.8387 41.1917 41.8387 40.9V30.494L44.5532 28.613C44.6997 28.5134 44.82 28.3779 44.9036 28.2186C44.9871 28.0593 45.0314 27.8812 45.0323 27.7V21.1C45.0323 20.8083 44.9201 20.5285 44.7205 20.3222C44.5208 20.1159 44.2501 20 43.9677 20ZM33.3226 20C31.9109 20 30.5571 20.5795 29.5589 21.6109C28.5608 22.6424 28 24.0413 28 25.5V32.1C28 32.3917 28.1122 32.6715 28.3118 32.8778C28.5114 33.0841 28.7822 33.2 29.0645 33.2H32.2581V40.9C32.2581 41.1917 32.3702 41.4715 32.5699 41.6778C32.7695 41.8841 33.0403 42 33.3226 42C33.6049 42 33.8757 41.8841 34.0753 41.6778C34.2749 41.4715 34.3871 41.1917 34.3871 40.9V31V21.1C34.3871 20.8083 34.2749 20.5285 34.0753 20.3222C33.8757 20.1159 33.6049 20 33.3226 20ZM32.2581 31H30.129V25.5C30.1287 24.8173 30.3333 24.1513 30.7146 23.5937C31.0959 23.0362 31.6352 22.6146 32.2581 22.387V31Z" fill="white"/>
<rect x="36" y="20" width="10.6857" height="22" fill="#4E7CFF"/>
</svg>
