<?xml version="1.0" standalone="no"?>
<!DOCTYPE svg PUBLIC "-//W3C//DTD SVG 20010904//EN"
 "http://www.w3.org/TR/2001/REC-SVG-20010904/DTD/svg10.dtd">
<svg version="1.0" xmlns="http://www.w3.org/2000/svg"
 width="416.000000pt" height="416.000000pt" viewBox="0 0 416.000000 416.000000"
 preserveAspectRatio="xMidYMid meet">

<g transform="translate(0.000000,416.000000) scale(0.100000,-0.100000)"
fill="#4e7cff" stroke="none">
<path shape-rendering="geometricPrecision" d="M2012 4149 c-29 -5 -76 -17 -105 -27 -51 -17 -685 -376 -700 -397 -4
-5 -6 -212 -5 -460 3 -449 3 -450 27 -503 39 -86 10 -66 656 -439 1043 -602
1189 -687 1215 -710 16 -13 42 -50 57 -81 l28 -57 5 -457 5 -457 290 168 c169
98 312 187 342 215 65 59 109 146 123 241 13 90 13 632 0 710 -13 80 -53 142
-120 186 -30 20 -446 262 -925 538 -478 277 -882 516 -897 532 -30 31 -38 92
-18 130 13 24 61 49 95 49 34 0 27 4 465 -250 1127 -652 1400 -810 1405 -810
9 0 5 654 -5 715 -14 87 -61 175 -124 232 -31 28 -158 109 -307 194 -140 81
-454 263 -699 404 -245 141 -466 268 -493 281 -89 46 -223 68 -315 53z"/>
<path shape-rendering="geometricPrecision" d="M708 3446 c-147 -85 -287 -168 -311 -184 -61 -43 -115 -106 -146
-171 l-26 -56 0 -405 c0 -380 1 -407 19 -444 11 -22 34 -53 51 -70 17 -17 439
-267 939 -556 499 -289 918 -535 931 -548 46 -45 37 -129 -18 -162 -67 -41 53
-105 -1542 818 -209 121 -383 218 -387 216 -12 -8 -9 -630 3 -703 19 -120 88
-227 186 -289 150 -94 1436 -829 1487 -850 46 -19 85 -26 162 -30 159 -7 195
7 576 228 l323 187 3 463 2 464 -25 53 c-14 28 -40 64 -58 80 -18 15 -145 93
-282 172 -1214 701 -1495 866 -1529 897 -21 20 -48 57 -60 83 -20 44 -21 62
-26 503 l-5 458 -267 -154z"/>
</g>
</svg>
