<svg width="23" height="24" viewBox="0 0 23 24" fill="none" xmlns="http://www.w3.org/2000/svg">
<path d="M22.953 12.006L22.953 20.6446C22.9719 21.7617 22.4203 22.8114 21.4895 23.4295C20.9579 23.8005 20.3249 23.9988 19.6766 23.9974L13.124 23.9974C12.678 24.0291 12.2628 23.7685 12.0974 23.3531C11.8979 22.9629 11.9681 22.4892 12.2721 22.1736C12.4862 21.9362 12.7935 21.8045 13.1131 21.8132L19.6002 21.8132C19.9497 21.8227 20.2826 21.6644 20.4957 21.3873C20.6381 21.2069 20.7151 20.9836 20.7141 20.7538L20.7141 3.34559C20.7376 3.02711 20.6205 2.71433 20.3936 2.48958C20.1668 2.26482 19.8529 2.15062 19.5347 2.17703L13.124 2.17703C12.7777 2.189 12.4462 2.03592 12.2308 1.76449C12.0154 1.49307 11.9416 1.13552 12.0319 0.800972C12.1551 0.356699 12.544 0.037672 13.0038 0.00373073C13.051 -0.00124364 13.0986 -0.00124364 13.1458 0.00373072L19.5783 0.00373044C21.3878 0.00373036 22.8547 1.47059 22.8547 3.28006L22.953 12.006Z" fill="#000"/>
<path d="M15.1883 12.8469L1.2093 12.8469C0.982048 12.8599 0.755555 12.8108 0.554034 12.705C0.119412 12.4588 -0.0928357 11.9492 0.0385863 11.4673C0.170008 10.9854 0.611603 10.6541 1.11101 10.6627L15.1883 10.6627L15.0573 10.4989L12.873 7.82323C12.5916 7.45809 12.5697 6.95551 12.8184 6.56731C13.0005 6.25097 13.3286 6.0465 13.6928 6.02236C14.0569 5.99823 14.4091 6.15763 14.6313 6.44717L18.2025 10.9139C18.5866 11.3842 18.5866 12.0599 18.2025 12.5302L14.6204 17.0406C14.2449 17.4851 13.587 17.5571 13.1242 17.2045C12.8976 17.0224 12.7529 16.7576 12.7222 16.4686C12.6915 16.1796 12.7772 15.8902 12.9604 15.6646L14.5112 13.7316L15.1883 12.8469Z" fill="#000"/>
</svg>
