<svg width="19" height="18" viewBox="0 0 19 18" fill="none" xmlns="http://www.w3.org/2000/svg">
<path fill-rule="evenodd" clip-rule="evenodd" d="M9.38671 3.2513L8.13725 7.11017C7.99883 7.52868 7.60909 7.81244 7.16829 7.81564H3.11393L6.38631 10.1956C6.74223 10.4558 6.89267 10.9139 6.7603 11.3345L5.51085 15.1934L8.78323 12.805C9.14493 12.5493 9.62849 12.5493 9.99019 12.805L13.2626 15.1934L12.0131 11.3345C11.8808 10.9139 12.0312 10.4558 12.3871 10.1956L15.6595 7.81564H11.6051C11.1643 7.81244 10.7746 7.52868 10.6362 7.11017L9.38671 3.2513ZM8.41779 0.701481C8.55537 0.282913 8.94616 0 9.38676 0C9.82736 0 10.2182 0.282913 10.3557 0.701481L12.1067 6.11579H17.759C18.1996 6.11816 18.5889 6.40324 18.7242 6.82261C18.8595 7.24198 18.7101 7.70081 18.3539 7.96023L13.7811 11.2836L15.532 16.6639C15.6693 17.0849 15.5192 17.5463 15.1606 17.8061C14.802 18.0658 14.3168 18.0645 13.9596 17.8029L9.38676 14.471L4.81392 17.7944C4.45798 18.0528 3.9765 18.0539 3.61938 17.7971C3.26226 17.5404 3.10994 17.0836 3.24148 16.6639L4.99241 11.2921L0.419575 7.96023C0.0633744 7.70081 -0.0859573 7.24198 0.0493242 6.82261C0.184606 6.40324 0.573908 6.11816 1.01455 6.11579H6.66686L8.41779 0.701481Z" fill="white"/>
</svg>
