<svg width="65" height="65" viewBox="0 0 65 65" fill="none" xmlns="http://www.w3.org/2000/svg">
<rect width="65" height="65" rx="6" fill="#4E7CFF"/>
<path fill-rule="evenodd" clip-rule="evenodd" d="M33.0436 25.8253L31.5736 30.3653C31.4108 30.8577 30.9522 31.1915 30.4336 31.1953H25.6636L29.5136 33.9953C29.9324 34.3015 30.1094 34.8405 29.9536 35.3353L28.4836 39.8753L32.3336 37.0653C32.7592 36.7645 33.3281 36.7645 33.7536 37.0653L37.6036 39.8753L36.1336 35.3353C35.9779 34.8405 36.1549 34.3015 36.5736 33.9953L40.4236 31.1953H35.6536C35.135 31.1915 34.6765 30.8577 34.5136 30.3653L33.0436 25.8253ZM31.9036 22.8253C32.0655 22.3329 32.5253 22 33.0436 22C33.562 22 34.0218 22.3329 34.1836 22.8253L36.2436 29.1953H42.8936C43.4121 29.1981 43.8701 29.5335 44.0292 30.0269C44.1884 30.5203 44.0127 31.0601 43.5936 31.3653L38.2136 35.2753L40.2736 41.6053C40.4351 42.1006 40.2585 42.6435 39.8367 42.9491C39.4148 43.2546 38.8439 43.2531 38.4236 42.9453L33.0436 39.0253L27.6636 42.9353C27.2449 43.2393 26.6784 43.2406 26.2582 42.9385C25.8381 42.6365 25.6589 42.0991 25.8136 41.6053L27.8736 35.2853L22.4936 31.3653C22.0746 31.0601 21.8989 30.5203 22.058 30.0269C22.2172 29.5335 22.6752 29.1981 23.1936 29.1953H29.8436L31.9036 22.8253Z" fill="white"/>
</svg>
